<?xml version="1.0" standalone="no"?>
<!DOCTYPE svg PUBLIC "-//W3C//DTD SVG 20010904//EN"
 "http://www.w3.org/TR/2001/REC-SVG-20010904/DTD/svg10.dtd">
<svg version="1.0" xmlns="http://www.w3.org/2000/svg"
 width="847.000000pt" height="142.000000pt" viewBox="0 0 847.000000 142.000000"
 preserveAspectRatio="xMidYMid meet">

<g transform="translate(0.000000,142.000000) scale(0.100000,-0.100000)"
fill="#000000" stroke="none">
<path d="M1220 1353 c-19 -2 -86 -15 -149 -29 -333 -74 -610 -225 -671 -366
-36 -83 -14 -158 60 -213 55 -41 94 -47 330 -52 124 -3 233 -9 243 -14 9 -6
17 -17 17 -26 0 -22 -68 -84 -133 -122 -171 -98 -492 -143 -647 -91 l-61 21
-51 -28 c-28 -15 -65 -46 -81 -68 -26 -36 -28 -46 -25 -101 5 -86 38 -133 120
-173 191 -93 582 -41 902 120 198 100 312 206 336 315 11 50 -11 128 -46 166
-60 63 -143 86 -361 97 -170 9 -191 16 -154 55 51 54 370 164 504 173 93 7 97
-1 37 -73 -43 -52 -49 -74 -25 -94 21 -17 52 -4 108 49 102 95 197 242 197
304 0 70 -75 128 -191 147 -62 9 -186 11 -259 3z"/>
<path d="M5315 1319 c-246 -20 -534 -120 -738 -257 -267 -181 -406 -399 -410
-642 -3 -234 154 -356 396 -306 163 33 315 115 457 244 60 55 73 61 154 82 78
19 155 44 209 65 13 6 17 2 17 -19 0 -41 39 -60 108 -53 31 3 67 9 80 13 40
12 23 -11 -33 -44 -63 -38 -130 -116 -144 -168 -23 -82 33 -150 122 -148 85 1
217 86 217 140 0 27 -7 29 -44 14 -56 -21 -25 38 95 181 58 69 79 103 79 128
0 22 -53 71 -77 71 -8 0 -55 -14 -105 -31 -49 -17 -92 -29 -95 -26 -3 4 22 40
56 82 64 80 70 95 46 115 -21 18 -87 -17 -163 -85 -33 -30 -62 -55 -65 -55 -2
0 -10 14 -17 30 -47 113 -348 126 -578 24 -115 -51 -162 -98 -162 -165 0 -57
86 -119 168 -119 37 0 22 -19 -48 -61 -113 -69 -218 -97 -248 -67 -7 7 -12 32
-12 58 1 95 61 214 169 331 168 184 555 414 750 445 55 9 54 -9 -3 -65 -57
-56 -75 -96 -54 -118 25 -24 76 -1 151 67 83 76 127 144 127 195 0 31 -7 45
-39 75 -63 60 -186 83 -366 69z"/>
<path d="M8233 1140 c-164 -33 -417 -193 -593 -376 -110 -114 -165 -188 -216
-288 l-41 -81 -114 -64 c-138 -77 -223 -113 -255 -109 -40 5 -31 21 36 64 122
79 145 98 148 127 6 47 -12 57 -99 57 -131 0 -104 31 93 106 90 34 138 43 138
24 0 -5 -18 -19 -41 -30 -42 -22 -47 -43 -11 -48 40 -6 154 64 178 110 71 138
-142 200 -368 108 -57 -23 -75 -27 -93 -18 -46 21 -144 -48 -369 -260 -71 -67
-133 -122 -137 -122 -18 0 -7 35 36 114 56 103 58 133 10 175 -42 37 -70 39
-115 9 -65 -44 -188 -255 -239 -411 -22 -66 -22 -68 -4 -105 22 -45 60 -66 96
-53 14 6 90 69 169 142 163 150 386 339 400 339 6 0 8 -7 4 -15 -10 -26 12
-65 49 -86 19 -12 35 -25 35 -29 0 -5 -29 -30 -65 -55 -92 -66 -115 -96 -115
-152 0 -36 6 -50 31 -75 29 -29 33 -30 97 -26 84 6 242 68 384 149 55 33 105
59 110 59 4 0 8 -19 8 -43 0 -56 28 -108 71 -129 72 -37 177 -16 354 73 187
93 324 199 258 199 -9 0 -73 -31 -143 -69 -152 -85 -212 -111 -251 -111 -24 0
-29 4 -29 25 0 14 9 45 21 68 31 63 103 166 115 167 25 0 234 114 342 186 189
126 322 270 322 348 0 35 -38 86 -75 102 -37 15 -68 16 -132 4z m68 -143 c-1
-4 -1 -14 -1 -23 0 -35 -266 -286 -347 -328 -34 -17 -73 -21 -73 -8 0 18 291
289 375 350 29 21 47 24 46 9z"/>
<path d="M3210 909 c-43 -18 -92 -61 -106 -95 -31 -75 -8 -134 53 -134 108 0
230 165 165 223 -20 19 -73 21 -112 6z"/>
<path d="M6349 900 c-85 -45 -130 -138 -91 -189 28 -37 96 -36 146 3 78 59
114 161 70 193 -25 18 -83 15 -125 -7z"/>
<path d="M1698 677 c-182 -63 -318 -227 -326 -392 -7 -129 42 -190 148 -182
106 7 186 67 280 210 86 132 77 124 148 131 l64 6 -34 -41 c-77 -95 -92 -120
-92 -154 0 -25 9 -44 30 -66 44 -47 74 -38 260 78 87 55 160 97 162 93 2 -4
-10 -29 -26 -54 -39 -60 -47 -105 -28 -151 41 -98 268 -73 327 37 16 30 -2 43
-42 29 -71 -25 -49 24 67 149 109 118 134 153 134 192 0 35 -42 68 -88 68 -28
0 -70 -23 -204 -110 -92 -60 -173 -110 -178 -110 -5 0 6 21 25 46 70 91 85
148 52 198 -31 47 -91 29 -203 -62 -86 -69 -219 -116 -264 -92 -29 15 -26 54
6 68 21 10 25 18 22 49 -2 30 -10 41 -35 56 -52 30 -127 31 -205 4z m122 -205
c0 -38 -49 -114 -123 -189 -73 -74 -107 -84 -107 -30 0 34 25 76 86 144 32 35
121 103 135 103 5 0 9 -13 9 -28z"/>
<path d="M3471 664 c-148 -40 -314 -172 -379 -303 -49 -99 -37 -192 30 -227
47 -24 134 6 240 83 47 34 69 31 48 -6 -33 -62 7 -119 77 -108 65 11 263 143
263 176 0 28 -34 18 -113 -33 -47 -31 -88 -56 -91 -56 -3 0 -6 11 -6 24 0 26
20 54 97 139 55 60 73 101 55 119 -16 16 -40 3 -171 -91 -111 -80 -150 -99
-170 -86 -47 29 196 201 332 236 25 6 53 19 62 29 24 27 1 68 -54 97 -52 27
-135 30 -220 7z"/>
<path d="M2959 588 c-73 -37 -208 -163 -258 -243 -40 -63 -65 -145 -56 -186 7
-31 54 -69 87 -69 49 0 225 176 336 337 59 87 68 137 32 173 -28 28 -67 25
-141 -12z"/>
<path d="M6125 595 c-155 -75 -325 -288 -325 -404 1 -54 15 -77 59 -92 27 -9
37 -8 74 14 77 45 270 266 326 372 26 50 26 75 0 109 -26 33 -67 34 -134 1z"/>
</g>
</svg>
